<svg width="64" height="36" viewBox="0 0 64 36" fill="none" xmlns="http://www.w3.org/2000/svg">
<path d="M0.258667 23V21.0421L2.79153 20.607V2.78368L0.258667 2.34858V0.375122H17.0098V5.81379H14.5546L14.2127 2.73706H5.85273V10.1026H14.1972V12.5111H5.85273V20.7002H14.71L15.0519 17.5769H17.4915V23H0.258667Z" fill="black"/>
<path d="M20.5527 23V21.0421L23.0856 20.607V2.78368L20.5527 2.34858V0.375122H30.3112C32.6732 0.375122 34.5171 0.887911 35.8431 1.91349C37.1795 2.92871 37.8477 4.45672 37.8477 6.49751C37.8477 7.50237 37.5265 8.40364 36.8842 9.20131C36.2523 9.98862 35.4132 10.5739 34.3669 10.9572C35.2785 11.1437 36.0607 11.5115 36.7133 12.0605C37.366 12.5992 37.8684 13.2622 38.2206 14.0495C38.5832 14.8265 38.7645 15.6811 38.7645 16.6134C38.7645 18.6853 38.0911 20.2703 36.7444 21.3684C35.3977 22.4561 33.5744 23 31.2746 23H20.5527ZM26.1467 20.607H31.2746C32.6732 20.607 33.7557 20.2651 34.5223 19.5814C35.2993 18.8873 35.6877 17.9084 35.6877 16.6445C35.6877 15.7536 35.5427 14.9922 35.2526 14.3603C34.9729 13.7284 34.5378 13.2415 33.9474 12.8996C33.3672 12.5577 32.6317 12.3868 31.7408 12.3868H26.1467V20.607ZM26.1467 9.9938H31.1037C32.2018 9.9938 33.0875 9.67784 33.7609 9.04592C34.4446 8.40364 34.7865 7.53345 34.7865 6.43536C34.7865 5.21295 34.4032 4.30133 33.6366 3.70048C32.87 3.08928 31.7615 2.78368 30.3112 2.78368H26.1467V9.9938Z" fill="black"/>
<path d="M41.0953 23V21.0421L43.6282 20.607V2.78368L41.0953 2.34858V0.375122H49.2223V2.34858L46.6894 2.78368V10.5998H57.5046V2.78368L54.9717 2.34858V0.375122H63.0986V2.34858L60.5658 2.78368V20.607L63.0986 21.0421V23H54.9717V21.0421L57.5046 20.607V13.0084H46.6894V20.607L49.2223 21.0421V23H41.0953Z" fill="black"/>
<path d="M11.5265 31.339H9.03244V30.3324H11.5265C12.0095 30.3324 12.4006 30.2555 12.6998 30.1016C12.999 29.9478 13.217 29.734 13.3538 29.4605C13.4948 29.1869 13.5654 28.8749 13.5654 28.5244C13.5654 28.2038 13.4948 27.9025 13.3538 27.6204C13.217 27.3383 12.999 27.1117 12.6998 26.9408C12.4006 26.7655 12.0095 26.6779 11.5265 26.6779H9.32096V35H8.08354V25.6649H11.5265C12.2318 25.6649 12.828 25.7867 13.3153 26.0303C13.8026 26.274 14.1723 26.6117 14.4245 27.0434C14.6767 27.4708 14.8028 27.9602 14.8028 28.5116C14.8028 29.11 14.6767 29.6208 14.4245 30.0439C14.1723 30.4671 13.8026 30.7898 13.3153 31.0121C12.828 31.2301 12.2318 31.339 11.5265 31.339Z" fill="black"/>
<path d="M15.7837 31.6083V31.4609C15.7837 30.9608 15.8564 30.497 16.0017 30.0696C16.147 29.6379 16.3565 29.2639 16.63 28.9476C16.9036 28.627 17.2349 28.3791 17.6238 28.2038C18.0128 28.0243 18.4488 27.9346 18.9318 27.9346C19.419 27.9346 19.8571 28.0243 20.2461 28.2038C20.6393 28.3791 20.9727 28.627 21.2463 28.9476C21.5241 29.2639 21.7357 29.6379 21.881 30.0696C22.0264 30.497 22.099 30.9608 22.099 31.4609V31.6083C22.099 32.1084 22.0264 32.5722 21.881 32.9996C21.7357 33.4271 21.5241 33.8011 21.2463 34.1216C20.9727 34.4379 20.6415 34.6858 20.2525 34.8654C19.8678 35.0406 19.4319 35.1282 18.9446 35.1282C18.4573 35.1282 18.0192 35.0406 17.6302 34.8654C17.2413 34.6858 16.9079 34.4379 16.63 34.1216C16.3565 33.8011 16.147 33.4271 16.0017 32.9996C15.8564 32.5722 15.7837 32.1084 15.7837 31.6083ZM16.9698 31.4609V31.6083C16.9698 31.9545 17.0105 32.2815 17.0917 32.5893C17.1729 32.8928 17.2947 33.162 17.4571 33.3971C17.6238 33.6322 17.8311 33.8182 18.079 33.9549C18.3269 34.0874 18.6155 34.1537 18.9446 34.1537C19.2694 34.1537 19.5537 34.0874 19.7973 33.9549C20.0452 33.8182 20.2504 33.6322 20.4128 33.3971C20.5752 33.162 20.697 32.8928 20.7783 32.5893C20.8637 32.2815 20.9065 31.9545 20.9065 31.6083V31.4609C20.9065 31.1189 20.8637 30.7962 20.7783 30.4927C20.697 30.185 20.5731 29.9136 20.4064 29.6785C20.244 29.4391 20.0388 29.251 19.7909 29.1143C19.5473 28.9775 19.2609 28.9091 18.9318 28.9091C18.6069 28.9091 18.3205 28.9775 18.0726 29.1143C17.829 29.251 17.6238 29.4391 17.4571 29.6785C17.2947 29.9136 17.1729 30.185 17.0917 30.4927C17.0105 30.7962 16.9698 31.1189 16.9698 31.4609Z" fill="black"/>
<path d="M24.7726 29.1527V35H23.5865V28.0628H24.7406L24.7726 29.1527ZM26.9397 28.0243L26.9333 29.1271C26.835 29.1057 26.7409 29.0929 26.6512 29.0886C26.5657 29.0801 26.4674 29.0758 26.3562 29.0758C26.0827 29.0758 25.8412 29.1185 25.6317 29.204C25.4223 29.2895 25.2449 29.4092 25.0996 29.5631C24.9543 29.7169 24.8389 29.9007 24.7534 30.1145C24.6722 30.3239 24.6187 30.5547 24.5931 30.8069L24.2597 30.9992C24.2597 30.5804 24.3003 30.1871 24.3815 29.8195C24.467 29.4519 24.5974 29.1271 24.7726 28.845C24.9479 28.5586 25.1701 28.3363 25.4394 28.1782C25.713 28.0158 26.0378 27.9346 26.4139 27.9346C26.4994 27.9346 26.5977 27.9452 26.7089 27.9666C26.82 27.9837 26.8969 28.0029 26.9397 28.0243Z" fill="black"/>
<path d="M31.261 28.0628V28.9732H27.5103V28.0628H31.261ZM28.7798 26.3766H29.9659V33.2817C29.9659 33.5168 30.0022 33.6942 30.0749 33.8139C30.1476 33.9336 30.2416 34.0126 30.357 34.0511C30.4724 34.0896 30.5964 34.1088 30.7289 34.1088C30.8272 34.1088 30.9298 34.1003 31.0366 34.0832C31.1478 34.0618 31.2311 34.0447 31.2867 34.0319L31.2931 35C31.199 35.0299 31.0751 35.0577 30.9212 35.0833C30.7716 35.1133 30.59 35.1282 30.3762 35.1282C30.0856 35.1282 29.8184 35.0705 29.5748 34.9551C29.3312 34.8397 29.1367 34.6474 28.9914 34.3781C28.8503 34.1045 28.7798 33.7369 28.7798 33.2753V26.3766Z" fill="black"/>
<path d="M34.4219 35H33.2358V27.3319C33.2358 26.8318 33.3255 26.4108 33.505 26.0688C33.6888 25.7226 33.9517 25.4619 34.2936 25.2866C34.6356 25.1071 35.0417 25.0173 35.5118 25.0173C35.6486 25.0173 35.7854 25.0259 35.9222 25.043C36.0632 25.0601 36.2 25.0857 36.3325 25.1199L36.2684 26.088C36.1786 26.0667 36.076 26.0517 35.9606 26.0432C35.8495 26.0346 35.7384 26.0303 35.6272 26.0303C35.3751 26.0303 35.1571 26.0816 34.9733 26.1842C34.7937 26.2825 34.657 26.4279 34.5629 26.6202C34.4689 26.8125 34.4219 27.0498 34.4219 27.3319V35ZM35.8965 28.0628V28.9732H32.1394V28.0628H35.8965Z" fill="black"/>
<path d="M36.9031 31.6083V31.4609C36.9031 30.9608 36.9758 30.497 37.1211 30.0696C37.2664 29.6379 37.4759 29.2639 37.7494 28.9476C38.023 28.627 38.3542 28.3791 38.7432 28.2038C39.1322 28.0243 39.5682 27.9346 40.0512 27.9346C40.5384 27.9346 40.9765 28.0243 41.3655 28.2038C41.7587 28.3791 42.0921 28.627 42.3657 28.9476C42.6435 29.2639 42.8551 29.6379 43.0004 30.0696C43.1458 30.497 43.2184 30.9608 43.2184 31.4609V31.6083C43.2184 32.1084 43.1458 32.5722 43.0004 32.9996C42.8551 33.4271 42.6435 33.8011 42.3657 34.1216C42.0921 34.4379 41.7609 34.6858 41.3719 34.8654C40.9872 35.0406 40.5512 35.1282 40.064 35.1282C39.5767 35.1282 39.1386 35.0406 38.7496 34.8654C38.3607 34.6858 38.0273 34.4379 37.7494 34.1216C37.4759 33.8011 37.2664 33.4271 37.1211 32.9996C36.9758 32.5722 36.9031 32.1084 36.9031 31.6083ZM38.0892 31.4609V31.6083C38.0892 31.9545 38.1298 32.2815 38.2111 32.5893C38.2923 32.8928 38.4141 33.162 38.5765 33.3971C38.7432 33.6322 38.9505 33.8182 39.1984 33.9549C39.4463 34.0874 39.7349 34.1537 40.064 34.1537C40.3888 34.1537 40.6731 34.0874 40.9167 33.9549C41.1646 33.8182 41.3698 33.6322 41.5322 33.3971C41.6946 33.162 41.8164 32.8928 41.8977 32.5893C41.9831 32.2815 42.0259 31.9545 42.0259 31.6083V31.4609C42.0259 31.1189 41.9831 30.7962 41.8977 30.4927C41.8164 30.185 41.6925 29.9136 41.5258 29.6785C41.3634 29.4391 41.1582 29.251 40.9103 29.1143C40.6667 28.9775 40.3803 28.9091 40.0512 28.9091C39.7263 28.9091 39.4399 28.9775 39.192 29.1143C38.9484 29.251 38.7432 29.4391 38.5765 29.6785C38.4141 29.9136 38.2923 30.185 38.2111 30.4927C38.1298 30.7962 38.0892 31.1189 38.0892 31.4609Z" fill="black"/>
<path d="M45.9946 25.152V35H44.8021V25.152H45.9946Z" fill="black"/>
<path d="M49.1875 28.0628V35H47.995V28.0628H49.1875ZM47.9052 26.2227C47.9052 26.0303 47.9629 25.8679 48.0783 25.7354C48.198 25.6029 48.3732 25.5367 48.6041 25.5367C48.8306 25.5367 49.0037 25.6029 49.1234 25.7354C49.2473 25.8679 49.3093 26.0303 49.3093 26.2227C49.3093 26.4065 49.2473 26.5646 49.1234 26.6971C49.0037 26.8254 48.8306 26.8895 48.6041 26.8895C48.3732 26.8895 48.198 26.8254 48.0783 26.6971C47.9629 26.5646 47.9052 26.4065 47.9052 26.2227Z" fill="black"/>
<path d="M50.7775 31.6083V31.4609C50.7775 30.9608 50.8502 30.497 50.9955 30.0696C51.1409 29.6379 51.3503 29.2639 51.6239 28.9476C51.8974 28.627 52.2287 28.3791 52.6176 28.2038C53.0066 28.0243 53.4426 27.9346 53.9256 27.9346C54.4129 27.9346 54.851 28.0243 55.2399 28.2038C55.6332 28.3791 55.9666 28.627 56.2401 28.9476C56.518 29.2639 56.7295 29.6379 56.8749 30.0696C57.0202 30.497 57.0928 30.9608 57.0928 31.4609V31.6083C57.0928 32.1084 57.0202 32.5722 56.8749 32.9996C56.7295 33.4271 56.518 33.8011 56.2401 34.1216C55.9666 34.4379 55.6353 34.6858 55.2463 34.8654C54.8617 35.0406 54.4257 35.1282 53.9384 35.1282C53.4511 35.1282 53.013 35.0406 52.6241 34.8654C52.2351 34.6858 51.9017 34.4379 51.6239 34.1216C51.3503 33.8011 51.1409 33.4271 50.9955 32.9996C50.8502 32.5722 50.7775 32.1084 50.7775 31.6083ZM51.9637 31.4609V31.6083C51.9637 31.9545 52.0043 32.2815 52.0855 32.5893C52.1667 32.8928 52.2885 33.162 52.4509 33.3971C52.6176 33.6322 52.8249 33.8182 53.0729 33.9549C53.3208 34.0874 53.6093 34.1537 53.9384 34.1537C54.2633 34.1537 54.5475 34.0874 54.7911 33.9549C55.039 33.8182 55.2442 33.6322 55.4066 33.3971C55.5691 33.162 55.6909 32.8928 55.7721 32.5893C55.8576 32.2815 55.9003 31.9545 55.9003 31.6083V31.4609C55.9003 31.1189 55.8576 30.7962 55.7721 30.4927C55.6909 30.185 55.5669 29.9136 55.4002 29.6785C55.2378 29.4391 55.0326 29.251 54.7847 29.1143C54.5411 28.9775 54.2547 28.9091 53.9256 28.9091C53.6007 28.9091 53.3144 28.9775 53.0664 29.1143C52.8228 29.251 52.6176 29.4391 52.4509 29.6785C52.2885 29.9136 52.1667 30.185 52.0855 30.4927C52.0043 30.7962 51.9637 31.1189 51.9637 31.4609Z" fill="black"/>
</svg>
