<svg width="23" height="23" viewBox="0 0 23 23" fill="none" xmlns="http://www.w3.org/2000/svg">
<path d="M0.292893 18.6557C0.105357 18.8433 0 19.0976 0 19.3628V22C0 22.5523 0.447715 23 1 23H3.63736C3.90258 23 4.15693 22.8946 4.34447 22.7071L22.7071 4.3445C22.8946 4.15696 23 3.90261 23 3.63739V1C23 0.447715 22.5523 0 22 0H19.3628C19.0976 0 18.8433 0.105356 18.6557 0.292893L0.292893 18.6557Z" fill="white"/>
<path d="M0 3.63751C0 3.90273 0.105357 4.15708 0.292893 4.34462L18.6554 22.7071C18.8429 22.8946 19.0973 23 19.3625 23H22C22.5523 23 23 22.5523 23 22V19.363C23 19.0978 22.8946 18.8434 22.7071 18.6559L4.34413 0.292893C4.1566 0.105356 3.90224 0 3.63703 0H1C0.447715 0 0 0.447715 0 1V3.63751Z" fill="white"/>
</svg>
