<svg width="23" height="23" viewBox="0 0 23 23" fill="none" xmlns="http://www.w3.org/2000/svg">
<path d="M0 1C0 0.447716 0.447715 0 1 0H22C22.5523 0 23 0.447715 23 1V4.72966C23 5.28195 22.5523 5.72966 22 5.72966H1C0.447715 5.72966 0 5.28195 0 4.72966V1Z" fill="white"/>
<path d="M0 18.2703C0 17.718 0.447715 17.2703 1 17.2703H22C22.5523 17.2703 23 17.718 23 18.2703V22C23 22.5523 22.5523 23 22 23H1C0.447715 23 0 22.5523 0 22V18.2703Z" fill="white"/>
<path d="M0 9.63517C0 9.08288 0.447715 8.63517 1 8.63517H22C22.5523 8.63517 23 9.08288 23 9.63517V13.3648C23 13.9171 22.5523 14.3648 22 14.3648H1C0.447715 14.3648 0 13.9171 0 13.3648V9.63517Z" fill="white"/>
</svg>
